<svg width="81.5" height="90" xmlns="http://www.w3.org/2000/svg">

 <g>
  <title>background</title>
  <rect fill="none" id="canvas_background" height="92" width="83.5" y="-1" x="-1"/>
 </g>
 <g>
  <title>Layer 1</title>
  <g stroke="null" id="svg_1">
   <path stroke="null" id="svg_2" d="m13.02958,60.55069c-1.1814,2.26842 -4.64121,1.17958 -7.08839,-1.90547c-2.44718,-3.08504 -3.79735,-5.71641 -5.14752,-6.4423c-1.35017,-0.81663 -1.1814,-4.99051 2.10964,-5.17199c3.29104,-0.18147 7.51032,2.08694 8.77611,3.53873c1.1814,1.45179 3.45981,5.98862 1.35017,9.98103z" fill="#845335"/>
   <path stroke="null" id="svg_3" d="m21.46814,67.26519c-0.50631,1.90547 -1.1814,4.53683 -0.92824,7.25893c0.33754,2.7221 3.45981,6.80525 4.21928,7.98482c0.75947,1.17958 4.97875,4.89978 8.86049,4.89978s8.60733,-1.90547 11.7296,0c3.20665,1.90547 6.75085,3.7202 10.21066,0.9981c3.45981,-2.7221 4.80998,-6.4423 6.66647,-13.42902c1.7721,-6.98672 4.64121,-12.34018 4.05051,-16.33259c-0.5907,-4.08315 -3.03788,-6.35156 -4.80998,-8.4385c-1.7721,-2.08694 -3.45981,-3.90167 -6.49769,-3.08504c-3.03788,0.81663 -5.31629,-4.17388 -8.86049,-4.99051c-3.62858,-0.81663 -7.08839,0.9981 -9.36681,-2.44989c-2.27841,-3.44799 0.42193,-5.17199 -1.35017,-7.80335c-1.7721,-2.63136 -2.86911,-5.53493 -3.45981,-8.4385c-0.5907,-2.90357 -1.51894,-5.53493 -1.7721,-7.98482c-0.33754,-2.44989 0.16877,-7.16819 -2.44718,-8.25703c-2.53157,-1.17958 -4.80998,-0.45368 -5.90699,1.27031c-1.09701,1.81473 -0.5907,7.62188 0,9.52734c0.5907,1.90547 0.75947,6.4423 1.68771,8.61998c0.92824,2.08694 1.35017,5.80714 2.86911,9.07366c1.51894,3.26652 3.79735,4.17388 3.29104,6.17009c-0.42193,1.90547 -1.35017,5.17199 -0.16877,8.71071c1.1814,3.53873 0.75947,6.80525 -0.5907,8.25703c-1.26578,1.45179 -6.41331,4.53683 -7.42594,8.4385z" fill="#845335"/>
   <path stroke="null" id="svg_4" d="m40.79245,30.6076c-0.08439,-3.62946 1.7721,-6.62377 2.10964,-8.4385c0.33754,-1.81473 -0.92824,-6.35156 -1.09701,-9.89029c-0.16877,-3.53873 0.42193,-11.8865 3.45981,-12.24944c3.03788,-0.36295 3.88174,2.7221 3.88174,4.62757s-0.33754,9.43661 0,11.34208c0.33754,1.90547 -0.16877,4.17388 -1.35017,5.71641c-1.1814,1.45179 -0.5907,2.90357 0.16877,4.17388c0.75947,1.27031 1.68771,4.99051 0.5907,7.4404c-1.09701,2.44989 -3.62858,2.63136 -5.14752,2.26842c-1.43456,-0.27221 -2.61595,-3.53873 -2.61595,-4.99051z" fill="#845335"/>
   <path stroke="null" id="svg_5" d="m55.55994,37.59432c-0.5907,-1.45179 -0.75947,-3.08504 0,-4.7183c0.75947,-1.63326 5.56945,-6.4423 5.99138,-9.70882c0.42193,-3.26652 -0.42193,-10.70692 2.10964,-12.61239c2.53157,-1.90547 5.99138,-3.08504 6.32892,-0.81663c0.33754,2.26842 0.33754,6.98672 -1.94087,10.34397c-2.27841,3.44799 -1.68771,5.35346 -2.27841,7.98482c-0.5907,2.63136 -1.68771,8.61998 -3.29104,10.25324c-1.60333,1.63326 -3.37543,2.90357 -5.48507,2.26842c-2.02526,-0.72589 -0.92824,-1.724 -1.43456,-2.99431z" fill="#845335"/>
   <path stroke="null" id="svg_6" d="m78.42844,29.33729c-1.94087,-0.27221 -2.70034,1.63326 -3.62858,2.90357c-0.92824,1.27031 -1.94087,3.44799 -2.10964,4.35536c-0.16877,0.9981 -1.51894,2.26842 -1.94087,4.08315c-0.42193,1.81473 -0.42193,5.35346 1.09701,4.7183c1.51894,-0.63516 2.86911,-1.90547 3.45981,-3.08504c0.5907,-1.17958 0.5907,-2.26842 1.51894,-2.63136c0.92824,-0.36295 3.79735,-3.44799 4.05051,-4.89978c0.25316,-1.45179 0.75947,-4.99051 -2.44718,-5.4442z" fill="#845335"/>
   <path stroke="null" id="svg_7" d="m67.88024,48.11977c-0.42193,0.90737 -2.10964,3.7202 0,2.54063c2.10964,-1.17958 2.02526,-1.99621 2.61595,-3.7202c0.5907,-1.724 -1.7721,-0.45368 -2.61595,1.17958z" fill="#845335"/>
  </g>
 </g>
</svg>