<svg width="45" height="29" xmlns="http://www.w3.org/2000/svg">
 <title>Ui vol.1</title>

 <g>
  <title>background</title>
  <rect fill="none" id="canvas_background" height="31" width="47" y="-1" x="-1"/>
 </g>
 <g>
  <title>Layer 1</title>
  <path fill="#3b7006" transform="rotate(-2.3550989627838135 15.1385335922241,7.6630620956420845) " id="svg_1" d="m12.47659,3.69679a5.00032,5.00032 0 0 0 2.63769,-0.60839a4.17933,4.17933 0 0 1 3.81006,-0.12305c3.06983,1.06787 7.812,2.62305 9.67041,3.22949a1.92945,1.92945 0 0 1 -0.54443,1.04346c-0.09522,0.07861 -0.38477,0.31592 -1.13477,0.16553a27.58694,27.58694 0 0 1 -5.457,-1.792a1.00289,1.00289 0 0 0 -1.38379,0.62549a6.83522,6.83522 0 0 1 -3.01709,3.82715a5.17884,5.17884 0 0 1 -4.29736,-0.14551a1.00006,1.00006 0 0 0 -0.75879,1.85059a7.06936,7.06936 0 0 0 5.93652,0.09082a8.17387,8.17387 0 0 0 3.65284,-4.01514a28.50657,28.50657 0 0 0 4.93212,1.51953a3.22494,3.22494 0 0 0 2.79541,-0.58007a4.55588,4.55588 0 0 0 1.37012,-3.28516a1.00045,1.00045 0 0 0 -0.6914,-0.95117c-0.06495,-0.021 -6.5669,-2.1333 -10.41553,-3.47168a6.0803,6.0803 0 0 0 -5.30664,0.19629a3.13315,3.13315 0 0 1 -1.65039,0.42968a5.378,5.378 0 0 1 -1.0708,-0.22168c-0.02539,-0.01074 -0.05176,-0.021 -0.07862,-0.02978a0.99049,0.99049 0 0 0 -0.13672,-0.03613a36.94317,36.94317 0 0 1 -5.5957,-2.55713a0.99969,0.99969 0 0 0 -1.437,0.55615l-4.666,13.99853a1.00064,1.00064 0 0 0 0.65625,1.27295l6.1084,1.8667a1.00077,1.00077 0 0 0 1.23975,-0.63672l4.16058,-12.31539a5.36238,5.36238 0 0 0 0.67188,0.09664zm-6.41651,10.6587l-4.19873,-1.28321l3.96582,-11.89843a38.2328,38.2328 0 0 0 4.061,1.85107l-3.82809,11.33057z"/>
  <path fill="#3b6d09" id="svg_2" d="m44.97377,12.92811l-6.87207,-13.8291a0.99954,0.99954 0 0 0 -1.38327,-0.4282l-5.769,3.22412a1.00013,1.00013 0 0 0 -0.40869,1.31592l6.36114,12.88263a65.98127,65.98127 0 0 1 -7.24395,5.58026c-4.13721,2.43311 -9.728,5.27979 -10.64551,5.31543a1.58993,1.58993 0 0 1 -0.65869,-1.21875c-0.01465,-0.32226 0.05615,-0.79 0.83984,-1.12939c2.53613,-1.09864 5.52441,-2.54883 5.5542,-2.56348a1,1 0 0 0 -0.874,-1.79883c-0.0293,0.01416 -2.97852,1.44532 -5.4751,2.52735a3.834,3.834 0 0 0 -0.96149,0.59271l-0.01214,0.00592a10.28378,10.28378 0 0 1 -3.188,1.80566a1.4996,1.4996 0 0 1 -0.39893,-1.05908a1.17656,1.17656 0 0 1 0.83106,-1.07422c2.2705,-0.98486 7.80713,-3.88769 8.042,-4.01123a0.99988,0.99988 0 1 0 -0.92974,-1.77054c-0.05664,0.02979 -5.70508,2.99122 -7.9082,3.94678a3.84527,3.84527 0 0 0 -0.77271,0.45a2.79516,2.79516 0 0 1 -1.72973,0.15064a0.43974,0.43974 0 0 1 -0.231,-0.26416c0.47363,-0.94483 4.72266,-3.27588 9.26758,-5.06983a1,1 0 1 0 -0.73438,-1.86035a49.12062,49.12062 0 0 0 -7.28113,3.43665a4.4083,4.4083 0 0 1 -1.41857,-1.21106a12.402,12.402 0 0 1 4.11084,-2.03955a1,1 0 0 0 -0.60694,-1.90576c-0.67529,0.21533 -4.09912,1.36181 -5.165,2.8247a1.82755,1.82755 0 0 0 -0.30468,1.52637a4.00488,4.00488 0 0 0 1.62841,2.03577c-1.18536,0.9906 -1.68036,1.89172 -1.457,2.69567a2.48588,2.48588 0 0 0 1.31738,1.63038a3.14987,3.14987 0 0 0 1.36005,0.28741c-0.00647,0.08221 -0.01837,0.16254 -0.01874,0.24677a3.18713,3.18713 0 0 0 1.63184,2.894a1.67576,1.67576 0 0 0 0.68457,0.13281a5.16543,5.16543 0 0 0 2.28679,-0.74872a3.19468,3.19468 0 0 0 2.14527,2.489a1.15,1.15 0 0 0 0.24316,0.02294c2.25782,0 10.21485,-4.61084 11.84229,-5.56835a72.20308,72.20308 0 0 0 8.03125,-6.21859l5.82275,-2.91138a1,1 0 0 0 0.44824,-1.33932zm-6.38234,2.07031l-5.83689,-11.82129l4.02343,-2.24853l5.96094,11.99609l-4.14748,2.07373z"/>
 </g>
</svg>