<svg width="100" height="90.5" xmlns="http://www.w3.org/2000/svg">

 <g>
  <title>background</title>
  <rect fill="none" id="canvas_background" height="92.5" width="102" y="-1" x="-1"/>
 </g>
 <g>
  <title>Layer 1</title>
  <g id="svg_1">
   <g id="svg_2">
    <g id="svg_3">
     <g id="svg_4">
      <g id="svg_5">
       <g id="svg_6">
        <g id="svg_7">
         <g id="svg_8">
          <g id="svg_9">
           <path fill="#003318" stroke="#005b2c" id="svg_10" d="m50.76907,90.35372c-0.53,0 -1.03,-0.21 -1.41,-0.58c-0.38,-0.38 -0.59,-0.89 -0.59,-1.42l0.02,-17.71c0,-7.67 8.09,-12.71 8.95,-13.23c3.4,-2.29 7.36,-6.33 7.4,-6.37l6.81,-7.38c1.09,-1.18 2.34,-2.09 3.65,-2.7l2.48,-24.03c0.03,-4.39 3.09,-7.83 7.02,-7.86c0.01,0 0.02,0 0.03,0c4.03,0 7.31,3.53 7.34,7.88l0,38.12c0,0.44 -0.14,0.87 -0.41,1.22l-17.47,22.81c0,0 -0.01,0.01 -0.01,0.01c0,0.01 -0.01,0.02 -0.02,0.04c0,0 0,0 0,0c-0.2,0.35 -1.33,2.63 -0.89,8.88c0.04,0.55 -0.15,1.09 -0.53,1.5c-0.37,0.41 -0.9,0.64 -1.45,0.64l-20.9,0.19c-0.01,-0.01 -0.01,-0.01 -0.02,-0.01zm28.73,-46.34c-1.35,0 -3.12,0.75 -4.61,2.37l-6.85,7.42c-0.21,0.22 -4.36,4.46 -8.12,6.97c-0.04,0.02 -0.07,0.05 -0.11,0.07c-0.07,0.04 -7.03,4.18 -7.03,9.81l-0.02,15.69l16.82,-0.16c-0.14,-6.52 1.4,-8.96 1.85,-9.54l17.05,-22.25l0,-37.42c-0.01,-2.11 -1.54,-3.9 -3.34,-3.9c0,0 -0.01,0 -0.01,0c-1.72,0.01 -3.06,1.75 -3.04,3.95c0,0.07 0,0.15 -0.01,0.22l-2.35,22.79c1.56,0.04 3,0.55 4.12,1.57c1.21,1.11 1.89,2.66 1.96,4.47c0.1,2.57 -1.01,5.31 -3.05,7.52l-9.62,10.42c-0.75,0.81 -2.01,0.86 -2.83,0.11c-0.81,-0.75 -0.86,-2.01 -0.11,-2.83l9.62,-10.42c1.29,-1.4 2.06,-3.18 2,-4.65c-0.02,-0.51 -0.15,-1.22 -0.67,-1.69c-0.41,-0.34 -0.98,-0.52 -1.65,-0.52zm-4.91,35.09l0,0l0,0z"/>
          </g>
         </g>
        </g>
       </g>
      </g>
     </g>
     <g id="svg_11">
      <g id="svg_12">
       <g id="svg_13">
        <g id="svg_14">
         <g id="svg_15">
          <g id="svg_16">
           <path fill="#003318" stroke="#005b2c" id="svg_17" d="m41.78907,90.35372c-0.01,0 -0.01,0 -0.02,0l-20.9,-0.19c-0.55,0 -1.08,-0.24 -1.45,-0.64c-0.37,-0.4 -0.56,-0.95 -0.53,-1.5c0.43,-6.24 -0.69,-8.53 -0.89,-8.88c0,0 0,0 0,0c-0.01,-0.02 -0.02,-0.03 -0.02,-0.04c0,0 -0.01,-0.01 -0.01,-0.01l-17.47,-22.8c-0.27,-0.35 -0.41,-0.78 -0.41,-1.22l0,-38.1c0.03,-4.37 3.32,-7.9 7.34,-7.9c0.01,0 0.02,0 0.03,0c3.95,0.03 7.02,3.49 7.03,7.9l1.58,23.62c1.62,0.58 3.2,1.62 4.54,3.08l6.85,7.42c0,0 3.96,4.04 7.36,6.33c0.87,0.52 8.95,5.55 8.95,13.23l0.02,17.71c0,0.53 -0.21,1.05 -0.59,1.42c-0.38,0.37 -0.88,0.57 -1.41,0.57zm-18.81,-4.17l16.81,0.15l-0.02,-15.69c0,-5.63 -6.96,-9.77 -7.03,-9.81c-0.03,-0.02 -0.07,-0.04 -0.11,-0.07c-3.76,-2.52 -7.91,-6.76 -8.08,-6.93l-6.89,-7.46c-2.23,-2.41 -5.07,-2.9 -6.23,-1.83c-0.52,0.48 -0.65,1.19 -0.67,1.7c-0.06,1.47 0.7,3.25 1.99,4.65l9.62,10.42c0.75,0.81 0.7,2.08 -0.11,2.83c-0.81,0.75 -2.08,0.7 -2.83,-0.11l-9.62,-10.42c-2.04,-2.21 -3.16,-4.96 -3.05,-7.52c0.07,-1.82 0.75,-3.36 1.96,-4.48c0.91,-0.84 2.05,-1.34 3.29,-1.51l-1.53,-22.93c0,-0.05 0,-0.1 0,-0.15c0.01,-2.2 -1.33,-3.94 -3.05,-3.95c0,0 -0.01,0 -0.01,0c-1.79,0 -3.32,1.79 -3.33,3.91l0,37.41l17.04,22.26c0.46,0.58 1.99,3.01 1.85,9.53zm-5.01,-7.08l0,0l0,0z"/>
          </g>
         </g>
        </g>
       </g>
      </g>
     </g>
    </g>
    <g id="svg_18">
     <g id="svg_19">
      <g id="svg_20">
       <g id="svg_21">
        <g id="svg_22">
         <g id="svg_23">
          <path fill="#003318" stroke="#005b2c" id="svg_24" d="m46.27907,43.44372c-0.51,0 -1.02,-0.19 -1.41,-0.58l-19.69,-19.67c-2.65,-2.65 -4.13,-6.17 -4.17,-9.91c-0.04,-3.75 1.38,-7.26 4,-9.88c2.58,-2.58 6.03,-4 9.73,-4c0.05,0 0.1,0 0.14,0c3.74,0.04 7.26,1.52 9.91,4.17l1.49,1.49l1.5,-1.49c2.65,-2.65 6.17,-4.13 9.9,-4.17c0.05,0 0.1,0 0.14,0c3.7,0 7.15,1.42 9.73,4c2.62,2.62 4.04,6.12 4,9.88c-0.04,3.74 -1.52,7.26 -4.17,9.91l-19.68,19.66c-0.39,0.39 -0.9,0.59 -1.42,0.59zm-11.54,-40.03c-2.63,0 -5.08,1 -6.9,2.83c-1.85,1.85 -2.85,4.34 -2.83,7.01c0.03,2.68 1.09,5.21 3,7.12l18.27,18.24l18.28,-18.25c1.9,-1.9 2.97,-4.43 2.99,-7.12c0.03,-2.67 -0.98,-5.16 -2.83,-7.01s-4.31,-2.83 -7.01,-2.83c-2.68,0.03 -5.21,1.09 -7.12,3c0,0 0,0 0,0l-2.92,2.9c-0.78,0.78 -2.04,0.77 -2.82,0l-2.9,-2.9c-1.91,-1.91 -4.43,-2.97 -7.12,-3c-0.02,0.01 -0.06,0.01 -0.09,0.01zm14.45,1.58l0,0l0,0z"/>
         </g>
        </g>
       </g>
      </g>
     </g>
    </g>
   </g>
  </g>
 </g>
</svg>